<svg width="170" height="170" viewBox="0 0 170 170" fill="none" xmlns="http://www.w3.org/2000/svg">
<g clip-path="url(#clip0_16_5162)">
<path fill-rule="evenodd" clip-rule="evenodd" d="M96.5895 56.4424C83.731 44.2605 68.1307 33.6632 50.7586 30.2656C44.4378 29.0288 38.2131 29.2789 31.838 29.4777C31.391 29.491 31.0377 29.8664 31.0504 30.3155C31.0651 30.7651 31.4405 31.1185 31.8902 31.1037C38.142 30.9096 44.2474 30.6497 50.446 31.8626C67.5715 35.2119 82.9263 45.7079 95.5838 57.7296L95.4146 57.9392C93.571 60.2103 93.2758 64.1669 94.0997 68.6229C95.2797 75.0103 98.6719 82.4428 102.292 87.0159C103.919 89.0706 105.608 90.5522 107.16 91.183C108.369 91.6757 109.518 91.682 110.549 91.1553C112.743 90.0316 113.411 87.2903 112.857 83.7559C111.701 76.3635 105.434 65.358 101.519 61.3176C100.295 60.0564 99.0436 58.803 97.763 57.5662C98.0764 57.1579 98.3849 56.7594 98.7024 56.3855C99.6103 55.3227 100.61 54.4485 102.181 54.0868C104.631 53.5259 107.255 54.0184 109.808 55.0173C113.791 56.579 117.595 59.3878 120.341 61.6602C135.634 74.317 140.555 90.4813 141.46 105.627C142.37 120.922 139.202 135.196 138.356 143.89C138.312 144.337 138.64 144.733 139.087 144.778C139.534 144.822 139.933 144.494 139.975 144.047C140.827 135.297 144.001 120.927 143.082 105.529C142.157 89.9814 137.077 73.3998 121.38 60.4064C118.52 58.039 114.55 55.1282 110.402 53.5024C107.53 52.3781 104.573 51.8696 101.816 52.5013C99.3427 53.0691 98.002 54.6301 96.5895 56.4424ZM96.7619 58.8612L96.6765 58.9647C95.0647 60.9498 94.9791 64.4304 95.7002 68.3266C96.834 74.4644 100.088 81.6094 103.569 86.0056C104.761 87.5137 105.973 88.6921 107.137 89.3632C108.098 89.9155 109.006 90.1168 109.806 89.7058C110.563 89.3211 111.008 88.6308 111.233 87.7488C111.499 86.7136 111.474 85.4362 111.251 84.0083C110.138 76.9051 104.113 66.3323 100.35 62.4503C99.1808 61.2456 97.9852 60.0471 96.7619 58.8612Z" fill="black"/>
<path fill-rule="evenodd" clip-rule="evenodd" d="M29.1918 31.3756C29.3504 31.0567 29.6937 30.6941 30.0675 30.3086C30.9569 29.3895 32.1195 28.4681 32.6499 28.0115C32.9904 27.717 33.0261 27.2032 32.7336 26.8632C32.439 26.5226 31.9258 26.4849 31.5852 26.7794C30.9363 27.3395 29.3891 28.5703 28.4379 29.6791C27.9281 30.2742 27.5894 30.8598 27.5052 31.3228C27.3605 32.1111 27.8416 32.7567 29.0597 33.0521C30.5008 33.4005 33.3516 33.3949 35.3465 34.8541C35.7078 35.1195 36.2194 35.0392 36.4826 34.6774C36.7485 34.314 36.6698 33.8051 36.3064 33.5392C34.4039 32.1491 31.8236 31.8812 30.1139 31.6005C29.789 31.5467 29.4136 31.4417 29.1918 31.3756Z" fill="black"/>
</g>
<defs>
<clipPath id="clip0_16_5162">
<rect width="137.999" height="137.999" fill="white" transform="translate(133.297 169.014) rotate(-165)"/>
</clipPath>
</defs>
</svg>
