<svg width="119.909668" height="119.912354" viewBox="0 0 119.91 119.912" fill="none" xmlns="http://www.w3.org/2000/svg" xmlns:xlink="http://www.w3.org/1999/xlink">
	<desc>
			Created with Pixso.
	</desc>
	<defs/>
	<path id="Ellipse 37" d="M59.95 119.9C93.03 119.9 119.9 93.03 119.9 59.95C119.9 26.87 93.03 0 59.95 0C26.87 0 0 26.87 0 59.95C0 93.03 26.87 119.9 59.95 119.9ZM92.09 32.98C98.22 40.27 101.91 49.68 101.91 59.95C101.91 69.48 98.69 79.06 92.09 86.92C85.97 94.22 77.34 99.49 67.23 101.27C57.85 102.93 47.85 101.42 38.97 96.28C30.71 91.52 24.02 83.94 20.52 74.3C17.26 65.34 17 55.24 20.52 45.6C23.77 36.64 30.08 28.73 38.97 23.61C47.22 18.84 57.13 16.84 67.23 18.63C76.62 20.28 85.5 25.11 92.09 32.98Z" fill="#EDEEFF" fill-opacity="1.000000" fill-rule="evenodd"/>
	<path id="Ellipse 38" d="M20.29 14.97C29.29 7.02 40.24 2.19 51.61 0.59C66.87 -1.57 81.61 2.25 93.46 10.26C106.25 18.86 114.65 31.57 118.1 45.45C121.85 60.4 119.59 75.46 112.87 88.09C105.65 101.7 93.89 111.38 80.45 116.27C69 120.45 57.09 120.9 46.05 118.27C41.22 117.11 39 111.8 40.86 107.19C42.72 102.59 47.96 100.48 52.86 101.32C60.18 102.58 67.56 101.83 74.3 99.37C84.44 95.69 92.29 88.49 96.99 79.64C102.07 70.12 103.08 59.51 100.66 49.8C98.06 39.33 91.71 30.76 83.41 25.16C74.47 19.12 64.02 17 54.11 18.4C46.61 19.45 39.86 22.42 34.27 26.75C30.34 29.79 24.72 30.38 20.91 27.19C17.11 24 16.57 18.26 20.29 14.97Z" fill="#7579FF" fill-opacity="1.000000" fill-rule="evenodd"/>
</svg>
