<svg width="119.911133" height="119.908081" viewBox="0 0 119.911 119.908" fill="none" xmlns="http://www.w3.org/2000/svg" xmlns:xlink="http://www.w3.org/1999/xlink">
	<desc>
			Created with Pixso.
	</desc>
	<defs/>
	<path id="Ellipse 37" d="M59.95 119.9C93.03 119.9 119.9 93.03 119.9 59.95C119.9 26.87 93.03 0 59.95 0C26.87 0 0 26.87 0 59.95C0 93.03 26.87 119.9 59.95 119.9ZM92.09 32.98C98.22 40.27 101.91 49.68 101.91 59.95C101.91 69.48 98.69 79.06 92.09 86.92C85.97 94.22 77.34 99.49 67.23 101.27C57.85 102.93 47.85 101.42 38.97 96.28C30.71 91.52 24.02 83.94 20.52 74.3C17.26 65.34 17 55.24 20.52 45.6C23.77 36.64 30.08 28.73 38.97 23.61C47.22 18.84 57.13 16.84 67.23 18.63C76.62 20.28 85.5 25.11 92.09 32.98Z" fill="#EDEEFF" fill-opacity="1.000000" fill-rule="evenodd"/>
	<path id="Ellipse 38" d="M20.29 14.97C29.06 7.23 39.67 2.44 50.72 0.72C65.63 -1.61 80.12 1.79 91.96 9.28C104.73 17.32 113.41 29.42 117.39 42.85C121.71 57.31 120.29 72.13 114.46 84.87C108.2 98.6 97.37 108.82 84.6 114.58C70.85 120.8 55.97 121.38 42.57 117.31C31.21 113.88 21.62 107.36 14.42 98.96C11.19 95.19 12.52 89.58 16.73 86.95C20.94 84.32 26.43 85.69 29.89 89.25C34.93 94.41 41.11 98.08 47.78 100.1C57.89 103.17 68.27 102.23 77.2 98.19C86.84 93.86 94.03 86.31 98.1 77.39C102.51 67.79 102.96 57.38 100.16 47.98C97.16 37.85 90.65 29.71 82.36 24.48C73.43 18.83 63.18 16.98 53.49 18.49C46.23 19.61 39.7 22.55 34.27 26.75C30.34 29.79 24.72 30.38 20.91 27.19C17.11 24 16.57 18.26 20.29 14.97Z" fill="#7579FF" fill-opacity="1.000000" fill-rule="evenodd"/>
</svg>
