<svg width="119.911621" height="119.905518" viewBox="0 0 119.912 119.906" fill="none" xmlns="http://www.w3.org/2000/svg" xmlns:xlink="http://www.w3.org/1999/xlink">
	<desc>
			Created with Pixso.
	</desc>
	<defs/>
	<path id="Ellipse 37" d="M59.95 119.9C93.03 119.9 119.9 93.03 119.9 59.95C119.9 26.87 93.03 0 59.95 0C26.87 0 0 26.87 0 59.95C0 93.03 26.87 119.9 59.95 119.9ZM92.09 32.98C98.22 40.28 101.91 49.68 101.91 59.95C101.91 69.48 98.69 79.06 92.09 86.92C85.97 94.22 77.34 99.49 67.23 101.27C57.85 102.93 47.85 101.42 38.97 96.28C30.71 91.52 24.02 83.95 20.52 74.3C17.26 65.34 17 55.24 20.52 45.6C23.77 36.64 30.08 28.74 38.97 23.61C47.22 18.84 57.13 16.84 67.23 18.63C76.62 20.28 85.5 25.11 92.09 32.98Z" fill="#EDEEFF" fill-opacity="1.000000" fill-rule="evenodd"/>
	<path id="Ellipse 38" d="M20.29 14.98C28.88 7.39 39.24 2.63 50.06 0.83C64.7 -1.63 79 1.46 90.82 8.57C103.55 16.21 112.42 27.85 116.79 40.93C121.51 55.01 120.69 69.62 115.52 82.4C109.97 96.17 99.86 106.76 87.62 113.11C74.46 119.98 59.9 121.46 46.46 118.35C31.99 115.02 19.96 106.69 11.77 95.6C4.84 86.26 1.05 75.56 0.19 64.75C-0.21 59.8 4.16 56.05 9.11 56.39C14.07 56.74 17.7 61.07 18.41 65.99C19.42 72.97 22.17 79.43 26.22 84.91C32.4 93.27 41.1 98.66 50.51 100.83C60.64 103.18 70.76 101.63 79.32 97.16C88.55 92.37 95.24 84.61 98.85 75.66C102.75 66.03 102.8 55.78 99.74 46.63C96.45 36.77 89.83 28.95 81.56 23.98C72.65 18.62 62.54 16.97 53.02 18.57C45.94 19.74 39.57 22.64 34.27 26.75C30.34 29.79 24.72 30.39 20.91 27.19C17.11 24 16.57 18.26 20.29 14.98Z" fill="#7579FF" fill-opacity="1.000000" fill-rule="evenodd"/>
</svg>
