<svg width="86" height="51" viewBox="0 0 86 51" fill="none" xmlns="http://www.w3.org/2000/svg">
<path fill-rule="evenodd" clip-rule="evenodd" d="M61.3026 48.2203C68.8937 48.4037 76.6512 48.0369 83.9095 50.6383C84.3421 50.7917 84.818 50.5682 84.9744 50.1347C85.1275 49.7011 84.9045 49.2242 84.4719 49.0674C77.0439 46.406 69.11 46.7395 61.3425 46.5527C60.8833 46.5394 60.5006 46.9062 60.4906 47.3665C60.4773 47.8267 60.8433 48.207 61.3026 48.2203Z" fill="url(#paint0_linear_16_4893)"/>
<path fill-rule="evenodd" clip-rule="evenodd" d="M60.6203 37.1754C62.9865 34.9935 65.569 33.359 68.6906 32.5489C69.1366 32.4335 69.4028 31.9782 69.2896 31.5326C69.1731 31.0871 68.7172 30.8193 68.2746 30.9346C64.8801 31.8151 62.068 33.5767 59.4954 35.9477C59.156 36.2592 59.1327 36.7872 59.4455 37.126C59.755 37.4645 60.2842 37.4869 60.6203 37.1754Z" fill="url(#paint1_linear_16_4893)"/>
<path fill-rule="evenodd" clip-rule="evenodd" d="M54.0377 13.3549C55.1226 9.62785 57.2592 6.71227 60.5339 4.6068C60.9199 4.35833 61.0331 3.84206 60.7835 3.45485C60.5372 3.06764 60.0214 2.9549 59.6353 3.20337C56.0112 5.53463 53.6416 8.76104 52.4403 12.8876C52.3105 13.3292 52.5667 13.7928 53.006 13.9215C53.4487 14.0506 53.9112 13.7964 54.0377 13.3549Z" fill="url(#paint2_linear_16_4893)"/>
<path fill-rule="evenodd" clip-rule="evenodd" d="M16.6482 8.29669C16.0026 9.0581 15.4235 9.87855 14.931 10.752C14.7114 11.1409 14.3253 11.9673 14.2654 12.6761C14.1988 13.4311 14.4551 14.0682 15.114 14.4037C15.9893 14.8486 16.6882 14.8022 17.2273 14.5331C17.7465 14.2746 18.1525 13.7667 18.4087 13.0856C18.8979 11.7839 18.8247 9.79451 18.5684 8.65923C19.2573 7.94684 20.0128 7.30081 20.8215 6.7265C26.8451 2.44918 35.6809 4.02638 42.4799 10.4218C44.8594 12.6611 46.0042 17.3636 46.5999 22.4374C47.5284 30.3373 46.9993 39.1608 46.9261 41.7458C46.9094 42.3842 46.9693 42.7631 47.0026 42.8388C47.159 43.211 47.4352 43.3077 47.6283 43.3444C47.9078 43.3944 48.1308 43.341 48.3105 43.2477C48.5534 43.1196 48.7531 42.8941 48.8463 42.5463C48.8962 42.3542 48.9095 42.0867 48.9029 41.8015C48.8962 41.6038 48.8563 41.3876 48.8962 41.2459C49.1558 40.3381 49.4686 39.4516 49.7748 38.5588C50.7965 35.5575 52.1177 32.745 53.5853 29.9358C58.2478 21.0096 62.7572 11.5781 70.4015 4.77745C70.7443 4.47228 70.7776 3.94466 70.4714 3.60048C70.1686 3.25629 69.6428 3.22493 69.2966 3.53043C61.4992 10.4655 56.8667 20.0594 52.111 29.1623C50.863 31.552 49.7182 33.9449 48.7664 36.448C48.8629 32.0202 48.8263 25.8912 48.0176 20.4683C47.2988 15.6453 45.931 11.383 43.618 9.20618C36.1701 2.20005 26.4557 0.68023 19.8597 5.3661C19.1542 5.86771 18.4819 6.41935 17.8563 7.01767C14.4052 0.772622 7.01708 -1.73042 0.487615 1.25654C0.0682908 1.44764 -0.114744 1.94258 0.0749499 2.36114C0.267972 2.7797 0.760493 2.96447 1.17982 2.77337C7.06366 0.0819097 13.7363 2.48387 16.6482 8.29669ZM17.1308 10.3875C16.8612 10.769 16.6116 11.1646 16.3787 11.5735C16.2555 11.7929 16.0425 12.2148 15.9527 12.6277C15.9327 12.7244 15.9294 12.8758 15.9294 12.9459C16.159 13.0593 16.3387 13.114 16.4851 13.0403C16.6682 12.9496 16.7614 12.7361 16.8512 12.4976C17.0775 11.8993 17.1507 11.1062 17.1308 10.3875Z" fill="url(#paint3_linear_16_4893)"/>
<defs>
<linearGradient id="paint0_linear_16_4893" x1="60.4902" y1="48.6195" x2="85.0227" y2="48.6195" gradientUnits="userSpaceOnUse">
<stop stop-color="#B224EF"/>
<stop offset="1" stop-color="#7579FF"/>
</linearGradient>
<linearGradient id="paint1_linear_16_4893" x1="59.2251" y1="34.1515" x2="69.3156" y2="34.1515" gradientUnits="userSpaceOnUse">
<stop stop-color="#B224EF"/>
<stop offset="1" stop-color="#7579FF"/>
</linearGradient>
<linearGradient id="paint2_linear_16_4893" x1="52.4065" y1="8.51327" x2="60.9162" y2="8.51327" gradientUnits="userSpaceOnUse">
<stop stop-color="#B224EF"/>
<stop offset="1" stop-color="#7579FF"/>
</linearGradient>
<linearGradient id="paint3_linear_16_4893" x1="0.00012207" y1="21.6818" x2="70.6814" y2="21.6818" gradientUnits="userSpaceOnUse">
<stop stop-color="#B224EF"/>
<stop offset="1" stop-color="#7579FF"/>
</linearGradient>
</defs>
</svg>
