<svg width="43" height="39" viewBox="0 0 43 39" fill="none" xmlns="http://www.w3.org/2000/svg">
<path fill-rule="evenodd" clip-rule="evenodd" d="M3.11316 12.8971C4.14603 9.21649 4.66707 5.36299 5.1444 1.62485C5.24447 0.819711 4.68605 0.0721948 3.89932 0.0146849C3.11201 -0.100335 2.39199 0.475101 2.29192 1.22273C1.83242 4.84585 1.34071 8.58366 0.346363 12.0918C0.130701 12.8394 0.574671 13.6449 1.3384 13.8749C2.10156 14.1049 2.89692 13.6448 3.11316 12.8971Z" fill="black"/>
<path fill-rule="evenodd" clip-rule="evenodd" d="M17.7568 24.0536C23.8017 18.13 29.0684 11.4589 35.2755 5.65039C35.8552 5.13281 35.8862 4.21265 35.3451 3.63755C34.8033 3.06245 33.8924 3.00516 33.3127 3.58026C27.0878 9.38876 21.8038 16.0599 15.7411 21.9834C15.1752 22.5585 15.1671 23.4785 15.7238 24.0536C16.28 24.5711 17.1909 24.6287 17.7568 24.0536Z" fill="black"/>
<path fill-rule="evenodd" clip-rule="evenodd" d="M41.0076 35.1538C37.5478 35.3263 34.088 35.4985 30.6277 35.671C29.8352 35.671 29.2233 36.3615 29.2618 37.1666C29.3009 37.9718 29.9755 38.5465 30.7686 38.5465C34.2341 38.374 37.6991 38.2018 41.164 38.0293C41.9565 37.9718 42.5644 37.2815 42.5213 36.4764C42.4781 35.7288 41.7995 35.0963 41.0076 35.1538Z" fill="black"/>
</svg>
